<svg width="32" height="32" xmlns="http://www.w3.org/2000/svg" fill="none">
 <!-- Rounded square background with gradient -->
 <defs>
  <linearGradient y2="100%" x2="100%" y1="0%" x1="0%" id="gradient">
   <stop stop-color="#34d399" offset="0%"/>
   <stop stop-color="#14b8a6" offset="100%"/>
  </linearGradient>
 </defs>
 <g>
  <title>Layer 1</title>
  <rect id="svg_2" fill="url(#gradient)" rx="8" height="28" width="28" y="2" x="2"/>
  <g y="4" x="4.16667" stroke="null" id="svg_29">
   <svg stroke-dasharray="—" stroke="white" y="6" x="6.16667" id="svg_3" class="lucide lucide-milk-icon lucide-milk" stroke-linejoin="round" stroke-linecap="round" stroke-width="2" fill="none" viewBox="0 0 24 24" height="20" width="20" xmlns="http://www.w3.org/2000/svg">
    <path stroke-dasharray="—" fill="none" stroke="null" id="svg_4" d="m8,2l8,0"/>
    <path stroke-dasharray="—" fill="none" stroke="null" id="svg_5" d="m9,2l0,2.789a4,4 0 0 1 -0.672,2.219l-0.656,0.984a4,4 0 0 0 -0.672,2.22l0,9.788a2,2 0 0 0 2,2l6,0a2,2 0 0 0 2,-2l0,-9.789a4,4 0 0 0 -0.672,-2.219l-0.656,-0.984a4,4 0 0 1 -0.672,-2.22l0,-2.788"/>
    <path stroke-dasharray="—" fill="none" stroke="null" id="svg_6" d="m7,15a6.472,6.472 0 0 1 5,0a6.47,6.47 0 0 0 5,0"/>
   </svg>
  </g>
 </g>
</svg>